<?xml version="1.0" standalone="no"?>
<!DOCTYPE svg PUBLIC "-//W3C//DTD SVG 1.1//EN" "http://www.w3.org/Graphics/SVG/1.1/DTD/svg11.dtd" >
<svg xmlns="http://www.w3.org/2000/svg">
<metadata>
Created by FontForge 20120731 at Thu Feb 16 09:29:44 2017
 By admin
</metadata>
<defs>
<font id="iconfont" horiz-adv-x="1024" >
  <font-face 
    font-family="iconfont"
    font-weight="500"
    font-stretch="normal"
    units-per-em="1024"
    panose-1="2 0 6 3 0 0 0 0 0 0"
    ascent="896"
    descent="-128"
    x-height="792"
    bbox="0 -128.286 1878 896"
    underline-thickness="0"
    underline-position="0"
    unicode-range="U+0078-E72F"
  />
<missing-glyph 
 />
    <glyph glyph-name=".notdef" 
 />
    <glyph glyph-name=".notdef" 
 />
    <glyph glyph-name=".null" horiz-adv-x="0" 
 />
    <glyph glyph-name="nonmarkingreturn" horiz-adv-x="341" 
 />
    <glyph glyph-name="x" unicode="x" horiz-adv-x="1001" 
d="M281 543q-27 -1 -53 -1h-83q-18 0 -36.5 -6t-32.5 -18.5t-23 -32t-9 -45.5v-76h912v41q0 16 -0.5 30t-0.5 18q0 13 -5 29t-17 29.5t-31.5 22.5t-49.5 9h-133v-97h-438v97zM955 310v-52q0 -23 0.5 -52t0.5 -58t-10.5 -47.5t-26 -30t-33 -16t-31.5 -4.5q-14 -1 -29.5 -0.5
t-29.5 0.5h-32l-45 128h-439l-44 -128h-29h-34q-20 0 -45 1q-25 0 -41 9.5t-25.5 23t-13.5 29.5t-4 30v167h911zM163 247q-12 0 -21 -8.5t-9 -21.5t9 -21.5t21 -8.5q13 0 22 8.5t9 21.5t-9 21.5t-22 8.5zM316 123q-8 -26 -14 -48q-5 -19 -10.5 -37t-7.5 -25t-3 -15t1 -14.5
t9.5 -10.5t21.5 -4h37h67h81h80h64h36q23 0 34 12t2 38q-5 13 -9.5 30.5t-9.5 34.5q-5 19 -11 39h-368zM336 498v228q0 11 2.5 23t10 21.5t20.5 15.5t34 6h188q31 0 51.5 -14.5t20.5 -52.5v-227h-327z" />
    <glyph glyph-name="information-transparency" unicode="&#xe712;" 
d="M514 755l312 -96l-1 -383q-3 -11 -13 -34q-21 -43 -58 -79q-34 -32 -128 -83q-52 -29 -111 -57l-3 -2q-6 4 -14 8l-4 2v0q-71 36 -113 60q-77 44 -107 72q-24 23 -41.5 50t-23 41t-7.5 23v1v381zM513 804l-357 -109l1 -427v-4q2 -9 6.5 -23t26 -49t51.5 -64
q53 -50 238 -144q15 -8 19 -10l13 -7l16 8q193 92 257 153q31 29 52 64t26 49t6 23l2 431zM733 207l-10 -10q-6 -5 -14 -5t-14 5l-71 72q-54 -37 -116 -37q-79 0 -136.5 57t-57.5 136t58 135t139 56t139 -56.5t58 -136.5q0 -68 -43 -121l71 -70q3 -3 2.5 -11t-5.5 -14z
M511 567q-61 0 -104 -42t-43 -99.5t43 -99.5t103.5 -42t103.5 42t43 99q0 58 -43.5 100t-102.5 42z" />
    <glyph glyph-name="service-protection" unicode="&#xe713;" 
d="M514 755l312 -96l-1 -383q-3 -11 -13 -34q-21 -43 -58 -79q-34 -32 -128 -83q-52 -29 -111 -57l-3 -2q-6 4 -14 8l-4 2v0q-71 36 -113 60q-77 44 -107 72q-24 23 -41.5 50t-23 41t-7.5 23v1v381zM513 804l-357 -109l1 -427v-4q2 -9 6.5 -23t26 -49t51.5 -64
q53 -50 238 -144q15 -8 19 -10l13 -7l16 8q193 92 257 153q31 29 52 64t26 49t6 23l2 431zM760 384h-497q0 99 67 170.5t164 77.5v0.5v0.5v25q0 8 5 12.5t12 4.5t12 -5t5 -12v-25v-0.5v-0.5q97 -6 164.5 -77.5t67.5 -170.5zM511.5 599q-79.5 0 -139.5 -51.5t-73 -129.5h424
q-12 78 -72 129.5t-139.5 51.5zM445 535q-18 0 -49 -28.5t-31 -45.5q0 -5 -3 -8t-8 -3t-8 3t-3 8q0 28 38 62.5t64 34.5q5 0 8.5 -3.5t3.5 -8t-3.5 -8t-8.5 -3.5zM511 355q8 0 13.5 -5.5t5.5 -13.5v-143q0 -9 6.5 -15.5t15.5 -6.5t15.5 6.5t6.5 15.5q0 7 5.5 13t13 6t13 -6
t5.5 -13q0 -25 -17.5 -42.5t-42 -17.5t-42 17.5t-17.5 42.5v143q0 8 5.5 13.5t13.5 5.5z" />
    <glyph glyph-name="operation-efficiency" unicode="&#xe714;" 
d="M514 755l312 -96l-1 -383q-3 -11 -13 -34q-21 -43 -58 -79q-34 -32 -128 -83q-52 -29 -111 -57l-3 -2q-6 4 -14 8l-4 2v0q-71 36 -113 60q-77 44 -107 72q-24 23 -41.5 50t-23 41t-7.5 23v1v381zM513 804l-357 -109l1 -427v-4q2 -9 6.5 -23t26 -49t51.5 -64
q53 -50 238 -144q15 -8 19 -10l13 -7l16 8q193 92 257 153q31 29 52 64t26 49t6 23l2 431zM695 340q6 0 11 -5t5 -11.5t-5 -11t-11 -4.5q-7 0 -11.5 4.5t-4.5 11t4.5 11.5t11.5 5zM651 408h87l-25 51h-62v-51zM748 390h-97v-51q14 -2 14 -15t9 -21h-1h1q8 -9 21 -9
q12 0 21 8v1q9 8 9 20v1q0 6 4.5 10.5t11.5 4.5h11v41zM754 308q-4 -15 -16 -27l-1 -1q-18 -17 -43 -17t-43 18v0q-11 11 -16 27h-93q-4 -15 -16 -27q-18 -18 -44 -18t-44 18q-11 11 -16 27h-34q-6 0 -11 4.5t-5 11.5v227q0 7 5 11.5t11 4.5h247q6 0 11 -4.5t5 -11.5v-61h71
q11 0 15 -10l45 -89q2 -3 2 -7v0v-60q0 -7 -4.5 -11.5t-11.5 -4.5h-14zM619 536h-215v-196h32q7 0 11.5 -5t4.5 -11q0 -13 9 -21q9 -9 21.5 -9t20.5 9q9 8 9 20v1q0 6 5 11t11 5h91v196zM482 340q7 0 11.5 -5t4.5 -11.5t-4.5 -11t-11 -4.5t-11.5 4.5t-5 11t5 11.5t11 5z
M398 429h74l5 -17h-75zM301 494h137l7 -24h-137zM234 417h122l10 -35h-122z" />
    <glyph glyph-name="respond-timely" unicode="&#xe715;" 
d="M514 755l312 -96l-1 -383q-3 -11 -13 -34q-21 -43 -58 -79q-34 -32 -128 -83q-52 -29 -111 -57l-3 -2q-6 4 -14 8l-4 2v0q-71 36 -113 60q-77 44 -107 72q-24 23 -41.5 50t-23 41t-7.5 23v1v381zM513 804l-357 -109l1 -427v-4q2 -9 6.5 -23t26 -49t51.5 -64
q53 -50 238 -144q15 -8 19 -10l13 -7l16 8q193 92 257 153q31 29 52 64t26 49t6 23l2 431zM683 445h-126l31 232l-248 -303h126l-30 -232z" />
    <glyph glyph-name="operation-login-name" unicode="&#xe716;" 
d="M656 294q66 38 105 104.5t39 145.5q0 119 -84.5 203.5t-203.5 84.5t-203.5 -84.5t-84.5 -203.5q0 -79 39 -145.5t105 -104.5q-113 -41 -187 -138t-83 -220h64q12 135 112.5 227.5t237.5 92.5v0v0q137 0 237.5 -92.5t112.5 -227.5h64q-9 123 -83 220t-187 138zM288 544
q0 93 65.5 158.5t158.5 65.5t158.5 -65.5t65.5 -158.5t-65.5 -158.5t-158.5 -65.5t-158.5 65.5t-65.5 158.5z" />
    <glyph glyph-name="operation-password" unicode="&#xe717;" 
d="M512 341q-31 0 -53 -21.5t-22 -52.5q0 -22 12 -40t31 -28v-82q0 -13 9.5 -22.5t22.5 -9.5t22.5 9.5t9.5 22.5v82q19 10 31 28t12 40q0 31 -22 52.5t-53 21.5zM832 491h-640q-26 0 -45 -19t-19 -45v-427q0 -27 19 -45.5t45 -18.5h640q27 0 45.5 18.5t18.5 45.5v427
q0 26 -18.5 45t-45.5 19zM832 43q0 -27 -8 -35t-35 -8h-554q-27 0 -35 8t-8 35v341q0 27 8 35t35 8h554q27 0 35 -8t8 -35v-341zM210 523q13 0 22.5 9t9.5 23v0q22 92 97.5 152.5t172.5 60.5q76 0 139.5 -37.5t100.5 -100.5q8 -20 29 -20q13 0 22.5 9.5t9.5 22.5v1
q0 10 -6 18q-45 78 -123.5 124.5t-171.5 46.5q-123 0 -216.5 -76t-117.5 -193q0 -1 -1 -2v-1v-1v0v-3q0 -14 9.5 -23.5t23.5 -9.5z" />
    <glyph glyph-name="Streaming-Server" unicode="&#xe720;" 
d="M945 -128h-343q-11 0 -19 8t-8 19.5t8 19.5t19 8h343h1q9 0 16 7t7 17v0l-8 858v1q0 9 -7 16t-16 7h-851q-10 0 -17 -7t-7 -16v-1l-8 -333v0q0 -11 -8 -19t-19.5 -8t-19.5 8t-8 19v0v341v0q0 33 23 56t56 23h866q33 0 56 -23t23 -56v-867q0 -32 -23 -55t-56 -23v0z
M148 -128v0q-11 0 -19 8t-8 19v1v0q0 38 -27.5 65t-65.5 27v0q-11 0 -19 8t-8 19.5t8 19.5t19 8v0q61 0 104 -43t43 -104v0v-1q0 -11 -8 -19t-19 -8v0v0zM294 -128v0q-12 0 -20 8t-8 19v1v0q0 98 -69.5 168t-168.5 70q-11 0 -19 8t-8 19.5t8 19.5t19 8q122 0 207.5 -86
t85.5 -207q0 -12 -8 -20t-19 -8zM453 -128v0q-12 0 -20 8t-8 19v1q0 107 -53 198.5t-144.5 145t-199.5 53.5q-11 0 -19 8t-8 19.5t8 19.5t19 8q92 0 175.5 -36t144.5 -96.5t96.5 -144t35.5 -175.5v-1q0 -11 -8 -19t-19 -8v0v0zM833 641h-129v63h129v-63v0zM576 641h-448v63
h448v-63v0zM833 448h-129v63h129v-63v0zM833 255h-129v66h129v-66v0zM833 64h-129v64h129v-63v-1zM576 448h-448v64h448v-63v-1z" />
    <glyph glyph-name="physical-server" unicode="&#xe721;" 
d="M782 681q22 1 37.5 16.5t16.5 37.5v53v3q0 22 -15.5 38t-37.5 16h-540q-22 0 -37.5 -15.5t-15.5 -38.5v-3v-53v-2q0 -21 15.5 -36.5t37.5 -15.5h1h538zM270.5 358q11.5 0 19 -7.5t7.5 -19t-7.5 -19t-19 -7.5t-19 7.5t-7.5 19t7.5 19t19 7.5zM270 573v0q12 0 19.5 -8
t7.5 -19t-7.5 -19t-19 -8t-19 8t-7.5 19t7.5 19t18.5 8zM270 788v0q12 0 19.5 -8t7.5 -19t-7.5 -19t-19.5 -8v0q-11 0 -18.5 8t-7.5 19t7.5 19t18.5 8zM943 -19h-322q-2 -12 -2 -26.5t2 -28.5v-5q0 -20 -14 -34t-34 -14q-3 0 -6 1q-12 -1 -27 -1q-14 0 -28 1q-11 1 -26 1
q-14 0 -28 -1q-20 6 -34.5 21t-18.5 36v5.5t-0.5 8.5t-0.5 9q0 15 1 29l-322 -2q-2 13 -2 27t2 28l322 -1q-1 13 -1 27t1 28q7 20 22.5 34.5t35.5 19.5l-4 53h-215q-44 1 -75.5 32t-32.5 75v54q1 42 33 69l5 5q2 1 -1 3l-4 4q-32 34 -33 81v53v7q0 39 32 62l6 2l-2 1
q-2 1 -3 1q-33 34 -33 82v7v53q1 45 32 76t75 32h540q44 -1 75 -32t32 -76v-53v-7q0 -47 -33 -82q-5 -2 -6 -2q8 -2 15 -6q10 -9 17 -25t7 -33v-7v-54q-1 -47 -34 -81q-8 -8 -20 -12q16 0 38 -9q15 -38 16 -60v-53q-8 -42 -38 -71.5t-72 -36.5l-213 1v-54v0q22 0 38 -16
t16 -38v0v-27v-28l322 1v-54zM244 627h-1q-22 0 -37.5 -15.5t-15.5 -37.5v-1l-2 -59q0 -20 14.5 -34.5t34.5 -14.5q4 0 7 1h538q21 5 35.5 20t18.5 36v51q-1 22 -16.5 37.5t-37.5 16.5h-538zM782 412h-538q-21 -3 -36 -18.5t-18 -36.5v-53q1 -22 16.5 -37.5t37.5 -16.5h538
h2q21 0 36.5 15.5t15.5 36.5v2v54v5q0 20 -14.5 34.5t-34.5 14.5h-5v0zM567 89q-10 -1 -29 -0.5t-25 0.5h-25.5h-22.5t-6 0v-54q0 -7 -0.5 -37.5t-0.5 -51t1 -19.5h54q9 0 24.5 0.5t22.5 0.5t7 -1q-2 26 -2 54q0 29 2 57v24v28v-1z" />
    <glyph glyph-name="Coco" unicode="&#xe722;" horiz-adv-x="1366" 
d="M55 309v0q-17 0 -31 11q-24 18 -24 47q0 18 10 33l315 471q16 25 45 25q17 0 31 -10q24 -18 24 -48q0 -18 -10 -33l-315 -471q-16 -25 -45 -25v0zM370 -127q-28 0 -44 22l-315 438q-11 15 -11 34q0 29 22 46q14 12 33 12q28 0 44 -23l314 -437q12 -15 12 -34
q0 -29 -22 -46q-15 -12 -34 -12h1zM1309 309q-29 1 -45 25l-317 472q-10 14 -10 32q0 30 24 48q14 10 31 10q30 0 46 -25l316 -471q10 -15 10 -33q0 -30 -23 -47q-15 -11 -32 -11v0v0zM993 -127v0q-19 0 -34 11q-22 18 -22 46q0 19 12 35l316 437q16 22 44 22q19 0 34 -11
q22 -18 22 -46q0 -19 -12 -35l-316 -436q-16 -23 -44 -23v0zM548 -127q-8 0 -16 3q-22 18 -22 46q0 15 7 28l249 908q2 16 14.5 26.5t28.5 10.5q8 0 15 -3q30 -18 30 -54q0 -10 -3 -20l-260 -908q-4 -15 -15.5 -26t-27.5 -12v1z" />
    <glyph glyph-name="allocation" unicode="&#xe723;" horiz-adv-x="1025" 
d="M412 -128l204 1l-1 153q50 6 87 40l101 -115l144 145l-109 108q31 38 33 87l154 -7l-2 205l-153 -3q-5 51 -39 87l115 102l-145 144l-109 -109q-37 31 -86 33l7 153l-205 -1l2 -153q-50 -6 -87 -39l-102 114l-144 -145l109 -108q-30 -37 -32 -86l-154 6l1 -204l153 2
q6 -50 40 -87l-115 -101l145 -145l109 109q37 -30 85 -33l-6 -153v0zM457 77q-83 15 -146 69l15 -13l-102 -112l-72 72l111 103l-7 9q-48 68 -54 153l3 -25l-153 -2v102l153 2v4q16 85 71 149l-14 -18l-112 102l72 73l102 -112l10 7q68 48 153 55l-26 -4l-2 153l103 1
l1 -154h4q85 -15 149 -70l-18 14l103 112l72 -72l-111 -103l6 -9q49 -68 55 -153l-4 25l154 2v-102l-154 -2v-4q-15 -84 -70 -149l14 18l112 -102l-72 -73l-103 112l-9 -7q-69 -49 -154 -55l26 4l2 -154h-102l-2 154h-4v0zM602 200q53 26 84 75.5t31 109.5q0 51 -23.5 95.5
t-64.5 73.5q-52 37 -117 37q-85 0 -145 -60.5t-60 -145.5q0 -66 38 -118.5t98 -74.5h2q32 -12 68 -12q48 0 91 21l-2 -1v0zM500 231q-60 5 -100.5 48.5t-40.5 104.5q0 63 45 108t108.5 45t108.5 -45t45 -108q0 -24 -7 -46q-15 -47 -55.5 -77.5t-92.5 -30.5q-6 0 -11 1v0z
" />
    <glyph glyph-name="Asset-Server" unicode="&#xe724;" 
d="M234 277q-25 95 37.5 163.5t176.5 71.5q8 1 18 1q91 0 155 -64t64 -155v-2q42 17 90 17q102 0 174.5 -71t74.5 -173q0 -50 -19.5 -88t-54 -60t-78.5 -33t-97 -11h-583q-23 -3 -52 1t-61 16t-54 41t-24 70q-1 8 -1 16q0 88 61.5 151t148.5 64zM211 185q-76 -30 -119.5 -79
t-26.5 -105q13 -30 40.5 -48t60.5 -18q11 0 21 2h581q38 0 64.5 2.5t52 10.5t41 21.5t25 37t9.5 56.5v13q0 76 -54 129.5t-130 53.5h-1h-1q-55 0 -102 -28q-4 -3 -11 -3q-8 0 -14 4q-11 7 -11 20q0 2 1 3v17v4q1 83 -52 126.5t-137 43.5q-69 0 -117.5 -48.5t-48.5 -117.5v-5
q0 -37 12 -72q1 -2 1 -7q0 -10 -7 -16.5t-17 -6.5q-4 0 -7 1q-27 9 -58 9h5zM960 257v575v0h-640v0l1 -208q1 -3 1 -6q0 -26 -21 -42q-4 1 -9.5 0.5t-12 2t-11.5 6.5t-8.5 14t-3.5 25v208q4 25 22 43t43 21h639q25 -3 43 -21t21 -43v-569zM775 -127h-583q-94 0 -142.5 32.5
t-48.5 115.5v0q0 87 61.5 149t148.5 62q8 0 27 -1q-4 23 -4 48q0 108 55.5 170.5t158.5 62.5q7 1 16 1q91 0 156 -64.5t65 -156.5q42 17 89 17h1q103 0 175.5 -73t72.5 -176v0q0 -50 -19 -87t-54 -58.5t-78.5 -31.5t-96.5 -10v0zM211 185q-36 -14 -65 -31.5t-53 -41.5
t-31 -51t3 -60q22 -64 121 -64h582q38 0 64.5 2.5t52 10.5t41 21.5t25 37t9.5 56.5v13q0 76 -54 129.5t-130 53.5h-1h-1q-55 0 -102 -28q-4 -3 -11 -3q-8 0 -14 4q-11 7 -11 20q0 2 1 3v17v4q1 83 -52 126.5t-137 43.5q-8 1 -17 1q-63 0 -107 -44t-44 -106q0 -11 2 -23
q0 -36 12 -71q1 -2 1 -7q0 -10 -7 -17t-16 -7q-5 0 -8 2q-26 9 -55 9h2zM999 576h-698q-10 1 -17 8t-7 17v1q12 33 46 39l637 -1q43 -6 67 -43l-3 4v0q0 -10 -7.5 -17.5t-17.5 -7.5v0zM999 320h-272q-10 3 -17 12t-7 20t7 20t17 12h272q10 -3 17 -12t7 -20t-7 -20t-17 -12v0
zM871 704h-80q-24 8 -24 32q0 11 6.5 20t17.5 12h80q24 -7 24 -32q0 -11 -6.5 -20t-16.5 -12h-1zM871 448h-80q-24 8 -24 32q0 12 6.5 20.5t17.5 11.5h80q24 -7 24 -32q0 -11 -6.5 -19.5t-16.5 -11.5z" />
    <glyph glyph-name="Transformation-Server" unicode="&#xe725;" 
d="M880 814h-123v61q0 12 -4 17t-14.5 2.5t-18 -6t-21.5 -12.5q-2 -1 -3 -1l-123 -61q-16 -11 -27 -19t-19 -14t-10 -10.5t-3.5 -7.5t3 -5t7.5 -3t13.5 -2t16 -1h19.5h123q10 1 21 0.5t40 -0.5h123q41 0 51 -10.5t10 -50.5v-614q0 -41 -10 -51t-51 -10h-61v-62h61
q8 -1 17 -1q44 0 75.5 31.5t31.5 75.5q0 9 -1 18v613q1 8 1 18q0 44 -31 75t-75 31q-9 0 -19 -2zM512 16h-123h-61h-184q-41 0 -51.5 10.5t-10.5 50.5v614q0 41 10.5 51t51.5 10h122v62h-122q-8 1 -17 1q-45 0 -76 -31.5t-31 -75.5q0 -9 1 -18v-613q-1 -8 -1 -17
q0 -44 31 -75.5t76 -31.5q9 0 17 2l184 -1v-61q0 -12 5 -17.5t15 -2.5t18.5 7.5t22.5 12.5l123 61q44 21 46 41.5t-46 20.5zM696 629h-368q-7 1 -15 1q-45 0 -77 -32t-32 -77q0 -7 1 -15l-5 -250v-10q0 -45 32 -77t77 -32q10 0 19 2h368q7 -1 14 -1q46 0 78 32t32 77
q0 7 -1 15v245q1 7 1 14q0 45 -32 77t-78 32q-7 0 -15 -1h1zM757 261q2 -5 2 -11q0 -21 -15 -36t-37 -15q-6 0 -11 1h-368q-5 -1 -11 -1q-22 0 -37 15t-15 36q0 6 2 12l-1 245q-1 5 -1 11q0 21 15 36t37 15q5 0 11 -1h368q5 1 11 1q22 0 37 -15t15 -36q0 -6 -2 -12v-245z
M389 445h62v-122h-62v122zM573 445h62v-122h-62v122z" />
    <glyph glyph-name="Tip-Back" unicode="&#xe726;" 
d="M810 429q19 -19 19 -45.5t-19 -45.5l-441 -447q-18 -19 -44.5 -19t-44.5 19l-65 66q-19 19 -19 45.5t19 44.5l333 338l-333 335q-19 18 -19 44t19 44l65 68q18 19 45 19v0h1q26 0 43 -19l441 -448v1z" />
    <glyph glyph-name="Close" unicode="&#xe727;" horiz-adv-x="1029" 
d="M613 383l389 389q22 21 22 52q0 29 -20.5 50t-50.5 21t-51 -22l-389 -389l-389 389q-21 22 -52 22q-29 0 -50 -21t-21 -50q0 -31 22 -52l389 -389l-389 -389q-22 -21 -22 -51q0 -29 21 -50t50 -21q31 0 51 22l390 389l389 -389q21 -22 51 -22t50.5 21t20.5 50
q0 30 -22 51z" />
    <glyph glyph-name="Export" unicode="&#xe728;" 
d="M512 896v0q-21 0 -35 -14l-187 -192q-11 -13 -11 -29v-1q0 -18 13 -30.5t32 -12.5h1h1q20 0 34 14l105 108v-498q0 -19 14 -32.5t33 -13.5t33 13.5t14 32.5v498l105 -108q14 -14 34 -14h1h1q19 0 32 12.5t14 30.5q0 17 -13 30l-186 192q-14 14 -35 14v0v0zM934 249
l-3 -284h-838l-3 284q-1 18 -14 30.5t-31 12.5t-31 -12.5t-14 -30.5v-334q0 -18 13 -30.5t31 -12.5h1h934h1q18 0 31 12.5t13 30.5v334q-1 18 -14 30.5t-31 12.5t-31 -12.5t-14 -30.5v0z" />
    <glyph glyph-name="DMS-Abnormal-condition" unicode="&#xe729;" 
d="M492 650h40q11 0 16 5t5 16v205q0 10 -5 15t-16 5h-40q-11 0 -16 -5q0 -3 -2.5 -8t-2.5 -7v-205q0 -11 5 -16t16 -5zM758 620l128 133q18 18 10 41q-7 21 -26 30q-11 4 -21.5 1t-13.5 -11l-128 -133q-18 -18 -11 -41q7 -22 26 -31q26 0 36 11zM983 -46h-118v266
q0 141 -97 246q-46 49 -107.5 75.5t-128.5 26.5h-40q-94 -2 -171.5 -49t-121 -126.5t-40.5 -172.5v-266h-118q-15 0 -28 -13t-13 -28v-41h1024v41q0 16 -11.5 28.5t-29.5 12.5zM783 -46h-542v287q0 102 71 174q35 34 82 52.5t98 18.5h46q102 0 173.5 -71.5t71.5 -173.5v-287
zM287 620q11 -12 25 -12t26 12q15 11 16 28t-11 28l-123 128q-11 11 -25.5 11t-26 -11.5t-11.5 -28t12 -27.5zM46 492l87 -47q16 -3 29 4t17 22q4 16 -3 29t-22 17l-93 51q-15 4 -28.5 -3t-17.5 -22q-3 -19 6 -33t25 -18zM870 471q0 -10 16 -26q10 -5 25 -5l82 46
q19 8 27 22t4 30q0 10 -15 25q-11 5 -26 5l-82 -46q-20 -8 -29 -22t-2 -29z" />
    <glyph glyph-name="Flip-Front" unicode="&#xe72a;" 
d="M214 429q-19 -19 -19 -45.5t19 -45.5l442 -447q18 -19 44 -19t44 19l66 66q19 19 19 45.5t-19 44.5l-334 338l334 335q19 18 19 44t-19 44l-66 68q-18 19 -44 19v0h-1q-26 0 -44 -19l-441 -448v1z" />
    <glyph glyph-name="Close-Button" unicode="&#xe72b;" 
d="M831 790v0q-14 14 -34 14q-21 0 -36 -15t-15 -36v0v-2q0 -20 13 -34q76 -57 119.5 -142.5t43.5 -183.5q0 -111 -55 -205.5t-149.5 -149.5t-205.5 -55t-205.5 55t-149.5 149.5t-55 205.5q0 98 43.5 183t118.5 143q16 15 16 36v1v0q0 21 -15 36t-36 15t-37 -15
q-89 -72 -140.5 -176.5t-51.5 -223.5q0 -104 40.5 -199t109 -163.5t163.5 -109t199 -40.5t199 40.5t163.5 109t109 163.5t40.5 199q0 119 -51 223.5t-141 176.5h-1zM512 331v0q21 0 36 15t15 36v1v461v0q0 21 -15 36t-36 15t-36 -15t-15 -36v0v-461v0q0 -22 15 -37t36 -15v0
z" />
    <glyph glyph-name="Global-status" unicode="&#xe72c;" horiz-adv-x="1877" 
d="M663 620l91 -91l-441 -439l-90 91zM1274 227l-91 -90l-440 440l91 90zM174 -125h3q71 0 120.5 50t49.5 121q0 70 -49 119.5t-119 50.5h-2q-71 0 -121 -50t-50 -120t49.5 -120t118.5 -51v0zM778 470h2q71 0 121 50t50 120t-49 120t-119 51h-3q-70 0 -120 -50t-50 -121
q0 -70 49 -119.5t119 -50.5v0zM1592 699l90 -91l-350 -349l-90 91zM1195 37h3q70 0 120 50t50 121q0 70 -49 119.5t-119 50.5h-2q-71 0 -121 -50t-50 -120t49 -120t119 -51v0zM1705 555h3q70 0 120 50t50 120t-49 120t-119 51h-2q-71 0 -121 -50t-50 -121q0 -69 49 -119
t119 -51v0z" />
    <glyph glyph-name="Refresh" unicode="&#xe72d;" horiz-adv-x="1252" 
d="M816 66q-97 -70 -218 -70h-6q-17 0 -35 2l-1 0.5t-3.5 0.5t-4.5 1l-24 3q-2 1 -14 4q-40 9 -74 27l41 -18h-1q-55 19 -100 52l69 -39v0q-68 30 -118 80l87 -65q-92 52 -145 141l55 -70v0q-10 8 -21 22q0 1 -1.5 2.5l-2.5 2.5q-84 106 -84 242v1h89v0q6 0 6 6q0 2 -1 4
l-149 227q-1 3 -4.5 3t-5.5 -3l-149 -227q-1 -2 -1 -4t1 -3q2 -3 6 -4h88v0q0 -160 90 -291l1 -2l18 -24l7 -9q12 -15 29 -33l3 -2q95 -97 225 -132l-109 43q16 -8 37 -18q1 0 4 -1.5l5 -2.5q13 -5 32 -12q14 -5 16 -5q11 -3 29 -8q18 -4 20 -4q1 -1 4 -1.5t4 -0.5l28 -4
q2 0 5.5 -0.5t4.5 -0.5q29 -3 50 -3q160 0 289 94q24 17 24 49q0 19 -11 35q-17 26 -49 26q-19 0 -35 -11v0zM1156 385v0q0 159 -90 290l-1 3q-7 10 -22 29l-1 1t-1 2q-107 131 -269 171l75 -25q-67 29 -144 36l96 -18q-9 3 -32 8q-13 3 -17 4q-2 0 -4.5 1t-4.5 1
q-5 1 -13.5 2t-10.5 1q-2 1 -7.5 1.5t-8.5 0.5q-22 2 -46 2l-1 1h-1v0q-160 0 -289 -93q-24 -18 -24 -50q0 -19 11 -35q18 -26 49 -26q20 0 35 11q97 70 218 70h4q17 0 33 -1q2 -1 3.5 -1t3.5 -0.5t3 -0.5q16 -2 27 -4q2 0 6 -1t6 -2q15 -3 26 -6l8 -3q16 -5 28 -11l3 -1
q119 -53 181 -165l-36 54q86 -107 86 -246v-1l-88 1v0q-7 0 -7 -7q0 -2 1 -3l149 -228q2 -3 5 -3v0h1q3 0 5 3l149 228q1 1 1 3q0 7 -6 7h-1h-88v0z" />
    <glyph glyph-name="Full-screen" unicode="&#xe72e;" 
d="M745 58h-466q-36 6 -62 32t-31 62v465q6 36 32 62t62 31h465q36 -6 62 -32t31 -62v-465q-6 -36 -32 -62t-62 -31h1zM279 617v-466h466v466h-466zM93 -128h140v0q18 0 31 10.5t17 27.5q-3 20 -16.5 35t-32.5 20h-139v140q0 19 -13.5 32.5t-33 13.5t-33 -13.5t-13.5 -32.5
v-140q6 -36 32 -62t62 -31h-1zM977 151q-18 -3 -31 -16t-15 -31v-139h-140q-19 0 -32.5 -13.5t-13.5 -33t13.5 -33t32.5 -13.5h140q36 6 62 32t31 62v139q-3 18 -16 31t-31 15v0zM0 803v-140q0 -19 13.5 -32.5t33 -13.5t33 13.5t13.5 32.5v140h140q19 0 32.5 13.5t13.5 33
t-13.5 33t-32.5 13.5h-140v0q-34 0 -60 -21.5t-33 -53.5v-18zM1024 663v140q-6 36 -32 62t-62 31h-139q-19 0 -32.5 -13.5t-13.5 -33t13.5 -33t32.5 -13.5h140v-140q0 -19 13.5 -32.5t33 -13.5t33 13.5t13.5 32.5z" />
    <glyph glyph-name="Traffic-information" unicode="&#xe72f;" horiz-adv-x="1229" 
d="M1203 330h-253q-4 -1 -7 -1q-20 0 -25 19l-38 123l-120 -568q-2 -30 -18 -30h-43q-3 -1 -6 -1q-19 0 -24 18l-149 741l-112 -535q-6 -21 -28 -21h-5h-40q-3 -1 -6 -1q-20 0 -26 19l-75 237h-202q-11 0 -18.5 7.5t-7.5 17.5v1v51v0q0 11 7.5 18.5t18.5 7.5l251 1q4 1 8 1
q18 0 24 -16l40 -123l109 581q6 17 24 17l54 1q3 1 6 1q20 0 24 -18l148 -735l108 527q1 9 8 15.5t16 6.5q2 0 4 -1l43 1q3 1 7 1q20 0 25 -19l74 -241h204q11 0 18.5 -7.5t7.5 -17.5v0v-52v0q0 -11 -7.5 -18.5t-18.5 -7.5v0zM1203 330z" />
  </font>
</defs>
</svg>
